<svg width="35" height="35" viewBox="0 0 35 35" fill="none" xmlns="http://www.w3.org/2000/svg">
<path d="M26.2499 2.91669H8.74992C7.13909 2.91669 5.83325 4.22252 5.83325 5.83335V29.1667C5.83325 30.7775 7.13909 32.0834 8.74992 32.0834H26.2499C27.8607 32.0834 29.1666 30.7775 29.1666 29.1667V5.83335C29.1666 4.22252 27.8607 2.91669 26.2499 2.91669Z" stroke="black" stroke-width="2" stroke-linecap="round" stroke-linejoin="round"/>
<path d="M13.125 32.0833V26.25H21.875V32.0833" stroke="black" stroke-width="2" stroke-linecap="round" stroke-linejoin="round"/>
<path d="M11.6667 8.75H11.6813" stroke="black" stroke-width="2" stroke-linecap="round" stroke-linejoin="round"/>
<path d="M23.3333 8.75H23.3478" stroke="black" stroke-width="2" stroke-linecap="round" stroke-linejoin="round"/>
<path d="M17.5 8.75H17.5146" stroke="black" stroke-width="2" stroke-linecap="round" stroke-linejoin="round"/>
<path d="M17.5 14.5833H17.5146" stroke="black" stroke-width="2" stroke-linecap="round" stroke-linejoin="round"/>
<path d="M17.5 20.4167H17.5146" stroke="black" stroke-width="2" stroke-linecap="round" stroke-linejoin="round"/>
<path d="M23.3333 14.5833H23.3478" stroke="black" stroke-width="2" stroke-linecap="round" stroke-linejoin="round"/>
<path d="M23.3333 20.4167H23.3478" stroke="black" stroke-width="2" stroke-linecap="round" stroke-linejoin="round"/>
<path d="M11.6667 14.5833H11.6813" stroke="black" stroke-width="2" stroke-linecap="round" stroke-linejoin="round"/>
<path d="M11.6667 20.4167H11.6813" stroke="black" stroke-width="2" stroke-linecap="round" stroke-linejoin="round"/>
</svg>
