<?xml version="1.0" encoding="UTF-8"?>
<svg id="Layer_1" data-name="Layer 1" xmlns="http://www.w3.org/2000/svg" viewBox="0 0 1080 1080">
  <defs>
    <style>
      .cls-1 {
        stroke-width: 38.13px;
      }

      .cls-1, .cls-2 {
        fill: none;
        stroke: #4d4dff;
        stroke-miterlimit: 10;
      }

      .cls-3 {
        fill: #4d4dff;
        stroke-width: 0px;
      }

      .cls-2 {
        stroke-width: 26.44px;
      }
    </style>
  </defs>
  <path class="cls-3" d="M520.06,637.84l-26.97-30.65c-2.3-2.04-1.65-5.22,1.13-6.78,26.12-14.67,64.46-12.5,89.52,0,2.87,1.43,3.32,4.79.97,6.78l-27.89,30.65c-1.18,1.01-1.71,2.42-1.42,3.81,4.36,20.78,42.66,154.42,48.5,219.68.08.9-.18,1.79-.73,2.56l-59.19,66.87c-2.03,2.83-6.92,2.83-8.94,0l-59.18-66.85c-.56-.79-.82-1.7-.72-2.62,1.67-16.35,22.45-142.82,46.17-219.65.45-1.46-.02-2.72-1.26-3.81Z"/>
  <path class="cls-3" d="M539.53,442.91c-46.94,0-84.99-38.05-84.99-84.99s38.05-84.99,84.99-84.99c9.95,0,19.46,1.8,28.33,4.94v35.66c0,8.17,6.62,14.79,14.79,14.79h36.46c3.43,9.23,5.4,19.17,5.4,29.59,0,46.94-38.05,84.99-84.99,84.99Z"/>
  <circle class="cls-1" cx="539.53" cy="357.92" r="129.28"/>
  <polyline class="cls-2" points="222.18 272.94 222.18 161.28 335.74 161.28"/>
  <polyline class="cls-2" points="745.21 160.33 856.87 160.33 856.87 273.88"/>
  <polyline class="cls-2" points="857.82 442.91 857.82 554.57 744.26 554.57"/>
  <polyline class="cls-2" points="334.79 555.52 223.13 555.52 223.13 441.96"/>
</svg>