<svg width="35" height="35" viewBox="0 0 35 35" fill="none" xmlns="http://www.w3.org/2000/svg">
<path d="M23.3334 30.625V27.7083C23.3334 26.1612 22.7188 24.6775 21.6249 23.5835C20.5309 22.4896 19.0472 21.875 17.5001 21.875H8.75008C7.20299 21.875 5.71925 22.4896 4.62529 23.5835C3.53133 24.6775 2.91675 26.1612 2.91675 27.7083V30.625" stroke="black" stroke-width="2" stroke-linecap="round" stroke-linejoin="round"/>
<path d="M13.1251 16.0417C16.3467 16.0417 18.9584 13.43 18.9584 10.2083C18.9584 6.98667 16.3467 4.375 13.1251 4.375C9.90342 4.375 7.29175 6.98667 7.29175 10.2083C7.29175 13.43 9.90342 16.0417 13.1251 16.0417Z" stroke="black" stroke-width="2" stroke-linecap="round" stroke-linejoin="round"/>
<path d="M32.0832 30.625V27.7083C32.0823 26.4158 31.6521 25.1603 30.8602 24.1388C30.0684 23.1173 28.9597 22.3877 27.7083 22.0646" stroke="black" stroke-width="2" stroke-linecap="round" stroke-linejoin="round"/>
<path d="M23.3333 4.56458C24.588 4.88585 25.7002 5.6156 26.4944 6.63878C27.2886 7.66196 27.7197 8.92037 27.7197 10.2156C27.7197 11.5109 27.2886 12.7693 26.4944 13.7925C25.7002 14.8156 24.588 15.5454 23.3333 15.8667" stroke="black" stroke-width="2" stroke-linecap="round" stroke-linejoin="round"/>
</svg>
